<svg xmlns="http://www.w3.org/2000/svg" xmlns:xlink="http://www.w3.org/1999/xlink" width="110" zoomAndPan="magnify" viewBox="0 0 82.5 82.499998" height="110" preserveAspectRatio="xMidYMid meet" version="1.0"><defs><clipPath id="895eeb1dc0"><path d="M 0 0 L 82.003906 0 L 82.003906 82.003906 L 0 82.003906 Z M 0 0 " clip-rule="nonzero"/></clipPath></defs><g clip-path="url(#895eeb1dc0)"><path fill="#303136" d="M 41 0 C 18.394531 0 0 18.394531 0 41 C 0 63.609375 18.394531 82.003906 41 82.003906 C 63.609375 82.003906 82.003906 63.609375 82.003906 41 C 82.003906 18.394531 63.609375 0 41 0 Z M 51.472656 9.179688 C 51.757812 8.421875 52.605469 8.042969 53.359375 8.328125 C 55.328125 9.074219 57.238281 10.003906 59.039062 11.09375 C 59.730469 11.507812 59.953125 12.410156 59.535156 13.101562 C 59.257812 13.558594 58.777344 13.808594 58.277344 13.808594 C 58.023438 13.808594 57.761719 13.738281 57.523438 13.597656 C 55.875 12.601562 54.125 11.75 52.324219 11.066406 C 51.566406 10.777344 51.1875 9.933594 51.472656 9.175781 Z M 52.167969 31.480469 C 52.167969 35.007812 50.527344 38.269531 47.738281 40.375 L 50.339844 60.035156 C 50.398438 60.453125 50.269531 60.875 49.992188 61.191406 C 49.710938 61.507812 49.3125 61.691406 48.890625 61.691406 L 33.113281 61.691406 C 32.691406 61.691406 32.292969 61.507812 32.011719 61.191406 C 31.734375 60.875 31.609375 60.453125 31.664062 60.035156 L 34.265625 40.375 C 31.476562 38.269531 29.835938 35.007812 29.835938 31.480469 C 29.835938 25.320312 34.84375 20.3125 41.003906 20.3125 C 47.160156 20.3125 52.171875 25.320312 52.171875 31.480469 Z M 41 75.925781 C 21.742188 75.925781 6.078125 60.257812 6.078125 41 C 6.078125 21.742188 21.742188 6.078125 41 6.078125 C 41.808594 6.078125 42.464844 6.730469 42.464844 7.542969 C 42.464844 8.351562 41.808594 9.003906 41 9.003906 C 23.359375 9.003906 9.003906 23.359375 9.003906 41 C 9.003906 58.644531 23.359375 72.996094 41 72.996094 C 58.644531 72.996094 72.996094 58.644531 72.996094 41 C 72.996094 33.707031 70.476562 26.570312 65.902344 20.90625 C 65.394531 20.277344 65.492188 19.355469 66.121094 18.847656 C 66.75 18.339844 67.671875 18.4375 68.179688 19.066406 C 73.175781 25.25 75.925781 33.039062 75.925781 41 C 75.925781 60.257812 60.257812 75.925781 41 75.925781 Z M 41 75.925781 " fill-opacity="1" fill-rule="nonzero"/></g><path fill="#303136" d="M 32.761719 31.480469 C 32.761719 34.316406 34.203125 36.921875 36.617188 38.441406 C 37.097656 38.75 37.359375 39.308594 37.285156 39.875 L 34.785156 58.761719 L 47.21875 58.761719 L 44.71875 39.875 C 44.644531 39.308594 44.902344 38.75 45.386719 38.441406 C 47.800781 36.921875 49.242188 34.316406 49.242188 31.480469 C 49.242188 26.933594 45.546875 23.242188 41.003906 23.242188 C 36.460938 23.242188 32.765625 26.933594 32.765625 31.480469 Z M 32.761719 31.480469 " fill-opacity="1" fill-rule="nonzero"/></svg>