<svg xmlns="http://www.w3.org/2000/svg" xmlns:xlink="http://www.w3.org/1999/xlink" width="120" zoomAndPan="magnify" viewBox="0 0 90 161.249994" height="215" preserveAspectRatio="xMidYMid meet" version="1.0"><defs><clipPath id="0c37fcc699"><path d="M 3 0 L 87 0 L 87 160.410156 L 3 160.410156 Z M 3 0 " clip-rule="nonzero"/></clipPath></defs><g clip-path="url(#0c37fcc699)"><path fill="#b6c2c2" d="M 21.585938 75.328125 L 4.773438 160.460938 L 85.203125 160.460938 L 68.390625 75.328125 C 69.589844 74.5 70.746094 73.613281 71.851562 72.664062 C 72.957031 71.71875 74.011719 70.714844 75.011719 69.652344 C 76.011719 68.59375 76.953125 67.484375 77.835938 66.324219 C 78.71875 65.164062 79.535156 63.964844 80.292969 62.71875 C 81.046875 61.472656 81.734375 60.1875 82.355469 58.871094 C 82.972656 57.550781 83.523438 56.203125 84 54.828125 C 84.476562 53.449219 84.878906 52.050781 85.207031 50.632812 C 85.535156 49.210938 85.789062 47.777344 85.964844 46.332031 C 86.144531 44.886719 86.242188 43.433594 86.265625 41.976562 C 86.289062 40.519531 86.234375 39.066406 86.105469 37.617188 C 85.976562 36.164062 85.769531 34.722656 85.484375 33.296875 C 85.203125 31.867188 84.84375 30.457031 84.410156 29.0625 C 83.980469 27.671875 83.472656 26.308594 82.898438 24.96875 C 82.320312 23.632812 81.675781 22.328125 80.957031 21.058594 C 80.242188 19.789062 79.464844 18.558594 78.617188 17.375 C 77.773438 16.1875 76.867188 15.046875 75.902344 13.957031 C 74.9375 12.863281 73.917969 11.828125 72.839844 10.84375 C 71.765625 9.863281 70.640625 8.9375 69.46875 8.074219 C 68.292969 7.210938 67.078125 6.410156 65.820312 5.675781 C 64.5625 4.941406 63.269531 4.273438 61.941406 3.675781 C 60.613281 3.078125 59.253906 2.550781 57.871094 2.09375 C 56.488281 1.640625 55.082031 1.261719 53.65625 0.953125 C 52.234375 0.648438 50.796875 0.417969 49.347656 0.265625 C 47.898438 0.109375 46.445312 0.0351562 44.988281 0.0351562 C 43.53125 0.0351562 42.078125 0.109375 40.628906 0.265625 C 39.179688 0.417969 37.742188 0.648438 36.320312 0.953125 C 34.894531 1.261719 33.488281 1.640625 32.105469 2.09375 C 30.722656 2.550781 29.363281 3.078125 28.035156 3.675781 C 26.707031 4.273438 25.414062 4.941406 24.15625 5.675781 C 22.898438 6.410156 21.683594 7.210938 20.507812 8.074219 C 19.335938 8.9375 18.210938 9.863281 17.136719 10.84375 C 16.0625 11.828125 15.039062 12.863281 14.074219 13.957031 C 13.109375 15.046875 12.203125 16.1875 11.359375 17.375 C 10.511719 18.558594 9.734375 19.789062 9.019531 21.058594 C 8.304688 22.328125 7.65625 23.632812 7.078125 24.96875 C 6.503906 26.308594 6 27.671875 5.566406 29.0625 C 5.132812 30.457031 4.777344 31.867188 4.492188 33.296875 C 4.210938 34.722656 4.003906 36.164062 3.871094 37.617188 C 3.742188 39.066406 3.6875 40.519531 3.710938 41.976562 C 3.734375 43.433594 3.835938 44.886719 4.011719 46.332031 C 4.1875 47.777344 4.441406 49.210938 4.769531 50.632812 C 5.097656 52.050781 5.5 53.449219 5.976562 54.828125 C 6.453125 56.203125 7.003906 57.550781 7.621094 58.871094 C 8.242188 60.1875 8.929688 61.472656 9.683594 62.71875 C 10.441406 63.964844 11.257812 65.164062 12.140625 66.324219 C 13.023438 67.484375 13.964844 68.59375 14.964844 69.652344 C 15.964844 70.714844 17.019531 71.71875 18.125 72.664062 C 19.234375 73.613281 20.386719 74.5 21.585938 75.328125 Z M 21.585938 75.328125 " fill-opacity="1" fill-rule="nonzero"/></g></svg>