<svg xmlns="http://www.w3.org/2000/svg" xmlns:xlink="http://www.w3.org/1999/xlink" width="40" zoomAndPan="magnify" viewBox="0 0 30 30.000001" height="40" preserveAspectRatio="xMidYMid meet" version="1.0"><defs><clipPath id="14d7d23153"><path d="M 0.484375 0 L 29.515625 0 L 29.515625 29.03125 L 0.484375 29.03125 Z M 0.484375 0 " clip-rule="nonzero"/></clipPath></defs><g clip-path="url(#14d7d23153)"><path fill="#4581ce" d="M 15 0 C 6.996094 0 0.484375 6.511719 0.484375 14.515625 C 0.484375 22.519531 6.996094 29.03125 15 29.03125 C 23.003906 29.03125 29.515625 22.519531 29.515625 14.515625 C 29.515625 6.511719 23.003906 0 15 0 Z M 18.707031 3.25 C 18.808594 2.980469 19.109375 2.847656 19.375 2.949219 C 20.070312 3.210938 20.75 3.542969 21.386719 3.925781 C 21.628906 4.074219 21.710938 4.394531 21.5625 4.640625 C 21.464844 4.800781 21.292969 4.890625 21.117188 4.890625 C 21.027344 4.890625 20.933594 4.863281 20.847656 4.8125 C 20.265625 4.460938 19.644531 4.160156 19.007812 3.917969 C 18.742188 3.816406 18.605469 3.515625 18.707031 3.25 Z M 18.953125 11.144531 C 18.953125 12.394531 18.371094 13.546875 17.386719 14.292969 L 18.304688 21.253906 C 18.328125 21.402344 18.28125 21.550781 18.183594 21.664062 C 18.085938 21.777344 17.941406 21.839844 17.792969 21.839844 L 12.207031 21.839844 C 12.058594 21.839844 11.917969 21.777344 11.816406 21.664062 C 11.71875 21.550781 11.675781 21.402344 11.695312 21.253906 L 12.617188 14.292969 C 11.628906 13.546875 11.046875 12.394531 11.046875 11.144531 C 11.046875 8.964844 12.820312 7.191406 15 7.191406 C 17.179688 7.191406 18.953125 8.964844 18.953125 11.144531 Z M 15 26.878906 C 8.183594 26.878906 2.636719 21.335938 2.636719 14.515625 C 2.636719 7.699219 8.183594 2.152344 15 2.152344 C 15.285156 2.152344 15.519531 2.382812 15.519531 2.671875 C 15.519531 2.957031 15.285156 3.1875 15 3.1875 C 8.753906 3.1875 3.671875 8.269531 3.671875 14.515625 C 3.671875 20.761719 8.753906 25.84375 15 25.84375 C 21.246094 25.84375 26.328125 20.761719 26.328125 14.515625 C 26.328125 11.933594 25.433594 9.40625 23.816406 7.402344 C 23.636719 7.179688 23.671875 6.851562 23.894531 6.671875 C 24.117188 6.492188 24.441406 6.527344 24.621094 6.75 C 26.390625 8.9375 27.363281 11.695312 27.363281 14.515625 C 27.363281 21.332031 21.816406 26.878906 15 26.878906 Z M 15 26.878906 " fill-opacity="1" fill-rule="nonzero"/></g><path fill="#4581ce" d="M 12.082031 11.144531 C 12.082031 12.148438 12.59375 13.070312 13.449219 13.609375 C 13.617188 13.71875 13.710938 13.917969 13.683594 14.117188 L 12.800781 20.804688 L 17.203125 20.804688 L 16.316406 14.117188 C 16.289062 13.917969 16.382812 13.71875 16.554688 13.609375 C 17.40625 13.070312 17.917969 12.148438 17.917969 11.144531 C 17.917969 9.535156 16.609375 8.226562 15 8.226562 C 13.390625 8.226562 12.082031 9.535156 12.082031 11.144531 Z M 12.082031 11.144531 " fill-opacity="1" fill-rule="nonzero"/></svg>